<?xml version="1.0" encoding="UTF-8" standalone="no"?>
<svg
   xmlns:dc="http://purl.org/dc/elements/1.1/"
   xmlns:cc="http://creativecommons.org/ns#"
   xmlns:rdf="http://www.w3.org/1999/02/22-rdf-syntax-ns#"
   xmlns:svg="http://www.w3.org/2000/svg"
   xmlns="http://www.w3.org/2000/svg"
   xmlns:sodipodi="http://sodipodi.sourceforge.net/DTD/sodipodi-0.dtd"
   xmlns:inkscape="http://www.inkscape.org/namespaces/inkscape"
   version="1.0"
   x="0.0000000"
   y="0.0000000"
   width="252.32"
   height="252.32"
   viewBox="0 0 252.32 252.32"
   xml:space="preserve"
   id="translucent-fedora-logo-with-radial-gradient"
   inkscape:version="1.0.2 (e86c870879, 2021-01-15)"
   sodipodi:docname="fedora-fr_square.svg"
   inkscape:export-filename="/home/kevfloh/Documents/Documents Kévin/Assos/Borsalinux-fr/fedora-fr_square.svg.png"
   inkscape:export-xdpi="97.019997"
   inkscape:export-ydpi="97.019997"><title
     id="title36">Fedora Logomark</title><metadata
     id="metadata16"><rdf:RDF><cc:Work
         rdf:about=""><dc:format>image/svg+xml</dc:format><dc:type
           rdf:resource="http://purl.org/dc/dcmitype/StillImage" /><dc:title>Fedora Logomark</dc:title><dc:date>17 March 2021</dc:date><dc:creator><cc:Agent><dc:title /></cc:Agent></dc:creator><dc:rights><cc:Agent><dc:title>Trademark of Red Hat, Inc., All Rights Reserved</dc:title></cc:Agent></dc:rights><dc:contributor><cc:Agent><dc:title>Máirín Duffy &lt;duffy@redhat.com&gt;</dc:title></cc:Agent></dc:contributor></cc:Work></rdf:RDF></metadata><defs
     id="defs14"><rect
       x="-299.46504"
       y="92.600725"
       width="393.47321"
       height="180.3485"
       id="rect935" /></defs><sodipodi:namedview
     pagecolor="#ffffff"
     bordercolor="#666666"
     borderopacity="1"
     objecttolerance="10"
     gridtolerance="10"
     guidetolerance="10"
     inkscape:pageopacity="0"
     inkscape:pageshadow="2"
     inkscape:window-width="2560"
     inkscape:window-height="1371"
     id="namedview12"
     showgrid="false"
     inkscape:snap-global="true"
     inkscape:snap-bbox="true"
     inkscape:snap-page="true"
     inkscape:zoom="1.8706404"
     inkscape:cx="168.16994"
     inkscape:cy="236.80047"
     inkscape:window-x="0"
     inkscape:window-y="0"
     inkscape:window-maximized="1"
     inkscape:current-layer="translucent-fedora-logo-with-radial-gradient"
     inkscape:document-rotation="0" /><g
     id="g211"
     style="display:inline;stroke-width:0.675354"
     transform="matrix(2.5275053,0,0,2.5275834,-51.842666,-209.47041)"
     inkscape:label="Logo Fedora"><path
       d="m 48.859988,106.87821 c -12.444941,0 -22.53368,10.08309 -22.541794,22.52521 h -0.0014 v 17.44486 h 0.0014 c 0.0056,2.8247 2.297289,5.11246 5.123392,5.11246 0.0071,0 0.01799,0 0.02505,0 h 0.0014 17.399 c 12.446352,-0.007 22.53368,-10.09544 22.53368,-22.54074 0,-12.45058 -10.091561,-22.54179 -22.542147,-22.54179 z"
       style="fill:#51a2da;fill-opacity:1;fill-rule:nonzero;stroke:none;stroke-width:0.238252"
       id="path244" /><path
       d="m 53.42846,116.15238 c -3.51543,0 -6.620227,2.64725 -7.050263,6.11999 -0.02893,0.29069 -0.04269,0.5013 -0.0441,0.76483 -0.01517,4.69053 0.03034,9.67775 0.0014,14.19366 0,2.72309 -2.033764,4.57658 -4.580467,4.57658 -2.550936,0 -4.606925,-2.03694 -4.606925,-4.58082 0.04269,-2.79188 2.271183,-4.56 4.878211,-4.63691 h 0.02364 l 2.638778,-0.0222 v -3.7525 l -2.640189,0.018 c -4.74345,-0.0441 -8.516408,3.66995 -8.653991,8.39364 0,4.59176 3.778602,8.33861 8.359069,8.33861 4.321528,0 7.918097,-3.38032 8.310739,-7.60554 0.0568,-1.43862 0.03034,-3.33198 0.03034,-3.33198 0.0071,-0.7814 -0.01517,-0.49883 -0.0067,-2.05035 l 3.279775,-0.0222 c 2.539647,0.0194 2.514952,-3.80894 -0.02505,-3.75638 l -3.254727,0.0219 c 0,-1.9251 0.03034,-3.8421 0,-5.77109 0.0042,-1.66758 1.5875,-3.13937 3.340452,-3.13937 1.754012,0 3.607506,0.87666 3.607506,3.14325 0,0.32385 -0.0081,0.51153 -0.02611,0.63148 -0.195791,1.05127 0.523523,2.05316 1.581856,2.20486 1.058333,0.14993 2.028472,-0.61207 2.133247,-1.6757 0.06068,-0.42051 0.0635,-0.78987 0.0635,-1.16064 0,-3.99767 -3.574697,-6.90104 -7.360003,-6.90104 z"
       style="fill:#fafafa;fill-opacity:1;fill-rule:nonzero;stroke:none;stroke-width:0.238252"
       id="path246" /></g><g
     aria-label="-fr"
     id="text835"
     style="font-weight:bold;font-size:84.1376px;line-height:1.25;font-family:'Source Code Pro';-inkscape-font-specification:'Source Code Pro Bold';stroke-width:4.50736"
     inkscape:label="-fr"><path
       d="m 145.15357,130.38416 q -1.85102,0 -3.11309,-1.17792 -1.17792,-1.17793 -1.17792,-3.02896 0,-1.85102 1.17792,-3.02895 1.26207,-1.26206 3.11309,-1.26206 h 18.76269 q 1.85103,0 3.02895,1.26206 1.17793,1.17793 1.17793,3.02895 0,1.85103 -1.17793,3.02896 -1.17792,1.17792 -3.02895,1.17792 z"
       style="font-style:normal;font-variant:normal;font-weight:bold;font-stretch:normal;font-family:Comfortaa;-inkscape-font-specification:'Comfortaa Bold';fill:#90bbda;fill-opacity:1;stroke-width:4.50736"
       id="path922" /><path
       d="m 198.16017,91.176042 q -4.71171,0 -7.57239,3.113091 -2.86068,3.113091 -2.86068,8.245487 v 2.27171 h 8.58204 q 1.76689,0 2.86068,1.00965 1.09379,1.00966 1.09379,2.69241 0,1.51447 -1.09379,2.52413 -1.09379,1.00965 -2.86068,1.00965 h -8.58204 v 32.81366 q 0,1.93517 -1.17792,3.11309 -1.17793,1.17793 -3.28137,1.17793 -1.68275,0 -2.94482,-1.17793 -1.17792,-1.17792 -1.17792,-3.11309 v -32.81366 h -3.61792 q -1.76689,0 -2.86068,-1.00965 -1.09379,-1.00966 -1.09379,-2.52413 0,-1.68275 1.09379,-2.69241 1.09379,-1.00965 2.86068,-1.00965 h 3.61792 v -1.43034 q 0,-5.973766 2.35585,-10.433059 2.43999,-4.54343 6.73101,-6.983421 4.37515,-2.524128 9.92824,-2.524128 1.85102,0 3.02895,1.093789 1.26206,1.093789 1.26206,2.776541 0,1.682752 -1.26206,2.776541 -1.17793,1.093789 -3.02895,1.093789 z"
       style="font-style:normal;font-variant:normal;font-weight:bold;font-stretch:normal;font-family:Comfortaa;-inkscape-font-specification:'Comfortaa Bold';fill:#90bbda;fill-opacity:1;stroke-width:4.50736"
       id="path924" /><path
       d="m 231.73096,102.61876 q 4.45929,0 6.98342,1.3462 2.52413,1.3462 2.52413,3.3655 0,0.58896 -0.0841,0.84138 -0.75724,2.6924 -3.3655,2.6924 -0.42069,0 -1.26207,-0.16827 -3.3655,-0.58897 -5.46894,-0.58897 -6.05791,0 -9.75997,2.77654 -3.70205,2.77654 -3.70205,7.48825 v 24.56818 q 0,2.0193 -1.09379,3.11309 -1.00965,1.09379 -3.11309,1.09379 -2.0193,0 -3.11309,-1.00965 -1.09379,-1.09379 -1.09379,-3.19723 v -37.60951 q 0,-2.0193 1.09379,-3.11309 1.09379,-1.09379 3.11309,-1.09379 4.20688,0 4.20688,4.20688 v 1.59862 q 2.52413,-2.94482 6.22618,-4.62757 3.70206,-1.68275 7.90894,-1.68275 z"
       style="font-style:normal;font-variant:normal;font-weight:bold;font-stretch:normal;font-family:Comfortaa;-inkscape-font-specification:'Comfortaa Bold';fill:#90bbda;fill-opacity:1;stroke-width:4.50736"
       id="path926" /></g></svg>
