<?xml version="1.0" encoding="UTF-8" standalone="no"?>
<svg
   xmlns:dc="http://purl.org/dc/elements/1.1/"
   xmlns:cc="http://creativecommons.org/ns#"
   xmlns:rdf="http://www.w3.org/1999/02/22-rdf-syntax-ns#"
   xmlns:svg="http://www.w3.org/2000/svg"
   xmlns="http://www.w3.org/2000/svg"
   xmlns:sodipodi="http://sodipodi.sourceforge.net/DTD/sodipodi-0.dtd"
   xmlns:inkscape="http://www.inkscape.org/namespaces/inkscape"
   width="16"
   height="16"
   viewBox="0 0 4.2333332 4.2333332"
   version="1.1"
   id="svg8"
   inkscape:version="1.0.2 (e86c870879, 2021-01-15)"
   sodipodi:docname="favicon.svg"
   inkscape:export-filename="/home/kevfloh/Documents/Documents Kévin/Assos/Borsalinux-fr/favicon.png"
   inkscape:export-xdpi="106.74615"
   inkscape:export-ydpi="106.74615">
  <defs
     id="defs2" />
  <sodipodi:namedview
     id="base"
     pagecolor="#3f3f3f"
     bordercolor="#666666"
     borderopacity="1.0"
     inkscape:pageopacity="0"
     inkscape:pageshadow="2"
     inkscape:zoom="31.678384"
     inkscape:cx="-0.49806618"
     inkscape:cy="12.534704"
     inkscape:document-units="mm"
     inkscape:current-layer="text835"
     inkscape:document-rotation="0"
     showgrid="false"
     inkscape:pagecheckerboard="true"
     units="px"
     inkscape:window-width="2560"
     inkscape:window-height="1371"
     inkscape:window-x="0"
     inkscape:window-y="0"
     inkscape:window-maximized="1" />
  <metadata
     id="metadata5">
    <rdf:RDF>
      <cc:Work
         rdf:about="">
        <dc:format>image/svg+xml</dc:format>
        <dc:type
           rdf:resource="http://purl.org/dc/dcmitype/StillImage" />
        <dc:title></dc:title>
      </cc:Work>
    </rdf:RDF>
  </metadata>
  <g
     inkscape:groupmode="layer"
     id="layer2"
     inkscape:label="Contenu">
    <g
       id="g211"
       style="display:inline;stroke-width:0.675354"
       transform="matrix(0.08444615,0,0,0.08444875,-2.0092671,-8.8126462)"
       inkscape:label="Logo Fedora">
      <path
         d="m 48.859988,106.87821 c -12.444941,0 -22.53368,10.08309 -22.541794,22.52521 h -0.0014 v 17.44486 h 0.0014 c 0.0056,2.8247 2.297289,5.11246 5.123392,5.11246 0.0071,0 0.01799,0 0.02505,0 h 0.0014 17.399 c 12.446352,-0.007 22.53368,-10.09544 22.53368,-22.54074 0,-12.45058 -10.091561,-22.54179 -22.542147,-22.54179 z"
         style="fill:#51a2da;fill-opacity:1;fill-rule:nonzero;stroke:none;stroke-width:0.238252"
         id="path244" />
    </g>
    <g
       aria-label="-fr"
       id="text835"
       style="font-weight:bold;font-size:84.1376px;line-height:1.25;font-family:'Source Code Pro';-inkscape-font-specification:'Source Code Pro Bold';fill:#ffffff;stroke-width:4.50736"
       inkscape:label="-fr"
       transform="matrix(0.02994462,0,0,0.02994462,-3.6042695,-1.3656269)">
      <path
         d="m 145.15357,130.38416 q -1.85102,0 -3.11309,-1.17792 -1.17792,-1.17793 -1.17792,-3.02896 0,-1.85102 1.17792,-3.02895 1.26207,-1.26206 3.11309,-1.26206 h 18.76269 q 1.85103,0 3.02895,1.26206 1.17793,1.17793 1.17793,3.02895 0,1.85103 -1.17793,3.02896 -1.17792,1.17792 -3.02895,1.17792 z"
         style="font-style:normal;font-variant:normal;font-weight:bold;font-stretch:normal;font-family:Comfortaa;-inkscape-font-specification:'Comfortaa Bold';fill:#ffffff;fill-opacity:1;stroke-width:4.50736"
         id="path922" />
      <path
         d="m 198.16017,91.176042 q -4.71171,0 -7.57239,3.113091 -2.86068,3.113091 -2.86068,8.245487 v 2.27171 h 8.58204 q 1.76689,0 2.86068,1.00965 1.09379,1.00966 1.09379,2.69241 0,1.51447 -1.09379,2.52413 -1.09379,1.00965 -2.86068,1.00965 h -8.58204 v 32.81366 q 0,1.93517 -1.17792,3.11309 -1.17793,1.17793 -3.28137,1.17793 -1.68275,0 -2.94482,-1.17793 -1.17792,-1.17792 -1.17792,-3.11309 v -32.81366 h -3.61792 q -1.76689,0 -2.86068,-1.00965 -1.09379,-1.00966 -1.09379,-2.52413 0,-1.68275 1.09379,-2.69241 1.09379,-1.00965 2.86068,-1.00965 h 3.61792 v -1.43034 q 0,-5.973766 2.35585,-10.433059 2.43999,-4.54343 6.73101,-6.983421 4.37515,-2.524128 9.92824,-2.524128 1.85102,0 3.02895,1.093789 1.26206,1.093789 1.26206,2.776541 0,1.682752 -1.26206,2.776541 -1.17793,1.093789 -3.02895,1.093789 z"
         style="font-style:normal;font-variant:normal;font-weight:bold;font-stretch:normal;font-family:Comfortaa;-inkscape-font-specification:'Comfortaa Bold';fill:#ffffff;fill-opacity:1;stroke-width:4.50736"
         id="path924" />
      <path
         d="m 231.73096,102.61876 q 4.45929,0 6.98342,1.3462 2.52413,1.3462 2.52413,3.3655 0,0.58896 -0.0841,0.84138 -0.75724,2.6924 -3.3655,2.6924 -0.42069,0 -1.26207,-0.16827 -3.3655,-0.58897 -5.46894,-0.58897 -6.05791,0 -9.75997,2.77654 -3.70205,2.77654 -3.70205,7.48825 v 24.56818 q 0,2.0193 -1.09379,3.11309 -1.00965,1.09379 -3.11309,1.09379 -2.0193,0 -3.11309,-1.00965 -1.09379,-1.09379 -1.09379,-3.19723 v -37.60951 q 0,-2.0193 1.09379,-3.11309 1.09379,-1.09379 3.11309,-1.09379 4.20688,0 4.20688,4.20688 v 1.59862 q 2.52413,-2.94482 6.22618,-4.62757 3.70206,-1.68275 7.90894,-1.68275 z"
         style="font-style:normal;font-variant:normal;font-weight:bold;font-stretch:normal;font-family:Comfortaa;-inkscape-font-specification:'Comfortaa Bold';fill:#ffffff;fill-opacity:1;stroke-width:4.50736"
         id="path926" />
    </g>
  </g>
</svg>
